<svg width="33" height="22" viewBox="0 0 33 22" fill="none" xmlns="http://www.w3.org/2000/svg">
<path d="M7.97012 17.5481C14.9293 20.2595 20.8516 20.7876 27.5628 16.5673C27.5136 16.6409 26.1861 18.6044 22.695 19.6107C23.4325 20.617 24.4406 21.7705 24.4406 21.7705C26.6778 21.7705 28.8658 21.1324 30.7588 19.9052C32.2339 18.9234 33.0698 17.2299 32.8976 15.4628C32.6026 12.4438 31.8896 9.49854 30.7834 6.67604C29.3821 2.99446 26.014 0.441854 22.105 0.0736667C21.7608 0.0491112 21.515 0.0491113 21.3675 0.0491113L20.9742 0.441781C25.4732 1.71809 27.7104 3.70614 27.7595 3.7798C20.8512 0.29452 12.6891 0.245482 5.73157 3.63254C5.73157 3.63254 7.94421 1.44812 12.8365 0.294521L12.5415 0C12.0252 0 11.5335 0.0491109 11.0173 0.122705C7.40331 0.736301 4.37943 3.21524 3.07641 6.62686C1.9455 9.57214 1.20797 12.6647 0.937562 15.8063C0.790058 17.4753 1.57677 19.1198 2.95351 20.077C4.77275 21.2797 6.9362 21.9178 9.12424 21.9178C9.12424 21.9178 10.0093 20.7642 10.8944 19.7334C7.57541 18.7516 6.22327 16.7881 6.19868 16.7144L6.82329 17.0329C7.19669 17.2233 7.5795 17.3959 7.97012 17.5481ZM11.8286 15.4137C10.2306 15.3645 8.97674 14.0146 9.02593 12.3947C9.07512 10.873 10.3044 9.6458 11.8286 9.59669C13.4266 9.6458 14.6804 10.9957 14.6312 12.6156C14.5575 14.1374 13.3528 15.3646 11.8286 15.4137ZM21.8591 15.4137C20.2611 15.3645 19.0073 14.0146 19.0565 12.3947C19.1056 10.873 20.3349 9.6458 21.8591 9.59669C23.4571 9.6458 24.711 10.9957 24.6618 12.6156C24.6127 14.1374 23.3834 15.3646 21.8591 15.4137Z" fill="#E3C249"/>
</svg>
