<svg width="30" height="28" viewBox="0 0 30 28" fill="none" xmlns="http://www.w3.org/2000/svg">
<path fill-rule="evenodd" clip-rule="evenodd" d="M9.98242 0H20.8574C25.8617 0 29.9199 3.89552 29.9199 8.69924V19.1383C29.9199 23.9421 25.8617 27.8376 20.8574 27.8376H9.98242C4.97811 27.8376 0.919922 23.9421 0.919922 19.1383V8.69924C0.919922 3.89552 4.97811 0 9.98242 0ZM20.8574 25.2282C24.3555 25.2282 27.2012 22.4967 27.2012 19.1387V8.69951C27.2012 5.34156 24.3555 2.60997 20.8574 2.60997H9.98242C6.4843 2.60997 3.63867 5.34156 3.63867 8.69951V19.1387C3.63867 22.4967 6.4843 25.2282 9.98242 25.2282H20.8574Z" fill="#E3C249"/>
<path fill-rule="evenodd" clip-rule="evenodd" d="M8.16992 13.9185C8.16992 10.0751 11.4161 6.95908 15.4199 6.95908C19.4237 6.95908 22.6699 10.0751 22.6699 13.9185C22.6699 17.7618 19.4237 20.8779 15.4199 20.8779C11.4161 20.8779 8.16992 17.7618 8.16992 13.9185ZM10.8887 13.9185C10.8887 16.3159 12.9223 18.2679 15.4199 18.2679C17.9175 18.2679 19.9512 16.3159 19.9512 13.9185C19.9512 11.5193 17.9175 9.56905 15.4199 9.56905C12.9223 9.56905 10.8887 11.5193 10.8887 13.9185Z" fill="#E3C249"/>
<ellipse cx="23.2141" cy="6.4374" rx="0.966028" ry="0.927168" fill="#E3C249"/>
</svg>
