<svg width="33" height="25" viewBox="0 0 33 25" fill="none" xmlns="http://www.w3.org/2000/svg">
<path d="M32.9199 2.95465C31.7299 3.45574 30.4619 3.78787 29.1399 3.94914C30.4999 3.16968 31.5379 1.94481 32.0259 0.468444C30.7579 1.19415 29.3579 1.70675 27.8659 1.99281C26.6619 0.762182 24.9459 0 23.0739 0C19.4419 0 16.5179 2.82986 16.5179 6.29904C16.5179 6.7982 16.5619 7.27816 16.6699 7.73509C11.2159 7.47975 6.38992 4.9705 3.14792 1.14807C2.58192 2.09072 2.24992 3.16968 2.24992 4.33119C2.24992 6.51214 3.41992 8.44544 5.16392 9.56471C4.10992 9.54551 3.07592 9.25177 2.19992 8.78909C2.19992 8.80829 2.19992 8.83325 2.19992 8.8582C2.19992 11.9185 4.47392 14.4603 7.45592 15.0459C6.92192 15.186 6.33992 15.2532 5.73592 15.2532C5.31592 15.2532 4.89192 15.2302 4.49392 15.1457C5.34392 17.6396 7.75592 19.4731 10.6239 19.5326C8.39192 21.2086 5.55792 22.2185 2.48992 22.2185C1.95192 22.2185 1.43592 22.1954 0.919922 22.1321C3.82592 23.931 7.26992 24.9581 10.9839 24.9581C23.0559 24.9581 29.6559 15.3588 29.6559 7.03818C29.6559 6.7598 29.6459 6.49102 29.6319 6.22416C30.9339 5.33719 32.0279 4.22944 32.9199 2.95465Z" fill="#E3C249"/>
</svg>
