<svg width="56" height="68" viewBox="0 0 56 68" fill="none" xmlns="http://www.w3.org/2000/svg">
<path d="M32.2688 0H54C55.1046 0 56 0.895429 56 2V6.96604C56 7.54882 55.7458 8.10261 55.3039 8.48256L29.1873 30.9377C28.7454 31.3177 28.4912 31.8715 28.4912 32.4542V38.5023C28.4912 39.0851 28.7454 39.6388 29.1873 40.0188L55.3039 62.474C55.7458 62.8539 56 63.4077 56 63.9905V66C56 67.1046 55.1046 68 54 68H29.3215C28.79 68 28.2803 67.7884 27.9051 67.412L0.583595 40.0057C0.209862 39.6308 0 39.123 0 38.5937V32.3628C0 31.8335 0.209862 31.3257 0.583595 30.9508L30.8524 0.587981C31.2277 0.211566 31.7373 0 32.2688 0Z" fill="#E3C249"/>
</svg>
