<svg width="148" height="158" viewBox="0 0 148 158" fill="none" xmlns="http://www.w3.org/2000/svg">
<g clip-path="url(#clip0_169_4857)">
<path d="M117.828 106.695C92.2875 98.5899 66.551 90.5373 41.011 82.4321C41.0495 81.7902 41.2318 80.8992 41.2703 80.2572C50.7269 79.4077 60.3798 78.5056 69.7837 77.4596C75.2976 76.8243 80.7589 75.9926 86.0097 74.3751C96.9041 71.0349 98.7797 62.3211 90.5569 54.4183C87.7505 51.8016 84.4987 49.0937 81.1171 47.4732C64.5111 39.7112 47.8139 32.3948 31.2605 24.8293C30.0679 24.3067 28.6788 23.8367 27.4476 23.9561C26.4129 24.0228 24.6977 24.6929 24.319 25.6365C23.8491 27.0257 23.8389 29.3444 24.8351 29.9197C27.7326 32.0909 30.7214 33.8166 33.9065 35.4897C46.9872 41.8803 60.4607 48.1656 73.594 54.7526C77.4737 56.6607 81.0273 59.7089 86.468 63.5146C81.1646 64.9356 78.1271 66.1706 74.8791 66.6198C60.3015 67.9994 45.6186 68.986 31.041 70.3655C27.7403 70.6183 24.387 70.6747 21.4022 72.1061C18.7575 73.2358 15.5904 75.5583 14.598 78.1401C13.0831 81.9148 15.9948 84.9244 19.429 86.7413C22.6141 88.4143 25.7992 90.0874 29.2719 91.2623C49.8064 97.9717 70.0918 104.537 90.6262 111.247C93.8499 112.278 97.1262 113.505 102.433 115.241C90.7007 118.596 80.0721 114.285 69.143 121.424C73.0753 123.529 75.4221 125.216 77.8986 125.816C97.4471 129.631 117.437 130.38 137.346 129.257C145.677 128.919 148.63 122.654 143.971 115.481C141.845 112.261 139.326 109.146 136.18 106.831C127.683 100.264 119.043 93.9472 110.207 87.6826C108.66 86.6233 105.594 86.1815 104.324 86.9428C101.694 88.9109 102.876 91.7522 104.883 93.7411C109.198 98.0591 113.906 102.272 118.364 106.341C118.259 105.948 117.971 106.446 117.828 106.695Z" fill="#E3C249"/>
</g>
<defs>
<clipPath id="clip0_169_4857">
<rect width="117.149" height="130.593" fill="white" transform="matrix(-0.965926 0.258819 0.258819 0.965926 114 0.688599)"/>
</clipPath>
</defs>
</svg>
