<svg width="57" height="68" viewBox="0 0 57 68" fill="none" xmlns="http://www.w3.org/2000/svg">
<path d="M24.5695 0H2.83838C1.73381 0 0.838379 0.895429 0.838379 2V6.96604C0.838379 7.54882 1.09257 8.10261 1.53447 8.48256L27.6511 30.9377C28.093 31.3177 28.3472 31.8715 28.3472 32.4542V38.5023C28.3472 39.0851 28.093 39.6388 27.6511 40.0188L1.53447 62.474C1.09257 62.8539 0.838379 63.4077 0.838379 63.9905V66C0.838379 67.1046 1.73381 68 2.83838 68H27.5169C28.0484 68 28.5581 67.7884 28.9333 67.412L56.2548 40.0057C56.6285 39.6308 56.8384 39.123 56.8384 38.5937V32.3628C56.8384 31.8335 56.6285 31.3257 56.2548 30.9508L25.9859 0.587981C25.6107 0.211566 25.101 0 24.5695 0Z" fill="#E3C249"/>
</svg>
